<?xml version="1.0" encoding="UTF-8" standalone="no"?>
<!-- Created with Inkscape (http://www.inkscape.org/) -->

<svg
   width="11.768177mm"
   height="11.623467mm"
   viewBox="0 0 11.768177 11.623467"
   version="1.1"
   id="svg1"
   xml:space="preserve"
   xmlns="http://www.w3.org/2000/svg"
   xmlns:svg="http://www.w3.org/2000/svg"><defs
     id="defs1" /><g
     id="layer1"
     transform="translate(-293.56876,-158.99498)"><path
       d="m 298.02158,170.31916 c 0,-0.16461 0.14313,-0.38775 0.31806,-0.49586 0.17493,-0.10812 0.31806,0.0266 0.31806,0.29929 0,0.27272 -0.14313,0.49586 -0.31806,0.49586 -0.17493,0 -0.31806,-0.13468 -0.31806,-0.29929 z m 1.5903,-0.0188 c 0,-0.17494 0.21469,-0.31806 0.47709,-0.31806 0.2624,0 0.47709,0.14312 0.47709,0.31806 0,0.17493 -0.21469,0.31806 -0.47709,0.31806 -0.2624,0 -0.47709,-0.14313 -0.47709,-0.31806 z m 1.76611,-0.2909 c -0.1024,-0.16569 -0.0506,-0.38505 0.11508,-0.48746 0.1657,-0.10241 0.38505,-0.0506 0.48746,0.11507 0.10241,0.1657 0.0506,0.38506 -0.11507,0.48747 -0.1657,0.10241 -0.38506,0.0506 -0.48747,-0.11508 z m -4.9467,-0.34522 c 0,-0.17493 0.14312,-0.31806 0.31806,-0.31806 0.17493,0 0.31806,0.14313 0.31806,0.31806 0,0.17493 -0.14313,0.31806 -0.31806,0.31806 -0.17494,0 -0.31806,-0.14313 -0.31806,-0.31806 z m 6.36118,-0.63612 c 0,-0.17493 0.14313,-0.31806 0.31806,-0.31806 0.17493,0 0.31806,0.14313 0.31806,0.31806 0,0.17493 -0.14313,0.31806 -0.31806,0.31806 -0.17493,0 -0.31806,-0.14313 -0.31806,-0.31806 z m -7.63342,-0.47709 c 0,-0.2624 0.14313,-0.47709 0.31806,-0.47709 0.17493,0 0.31806,0.21469 0.31806,0.47709 0,0.2624 -0.14313,0.47709 -0.31806,0.47709 -0.17493,0 -0.31806,-0.21469 -0.31806,-0.47709 z m 8.5876,-0.79514 c 0,-0.17494 0.21469,-0.31806 0.47708,-0.31806 0.2624,0 0.47709,0.14312 0.47709,0.31806 0,0.17493 -0.21469,0.31805 -0.47709,0.31805 -0.26239,0 -0.47708,-0.14312 -0.47708,-0.31805 z m -9.54177,-0.63612 c 0,-0.17494 0.14312,-0.31806 0.31805,-0.31806 0.17494,0 0.31806,0.14312 0.31806,0.31806 0,0.17493 -0.14312,0.31806 -0.31806,0.31806 -0.17493,0 -0.31805,-0.14313 -0.31805,-0.31806 z m 2.68477,-0.14892 c -0.58933,-0.44575 -0.59055,-0.46743 -0.0268,-0.47709 0.44339,-0.008 0.52902,-0.14887 0.34347,-0.56671 -0.39911,-0.89881 -0.55116,-3.26011 -0.20992,-3.26011 0.17112,0 0.48931,0.21469 0.70708,0.47709 0.50621,0.60995 1.08652,0.60702 1.59698,-0.008 0.44888,-0.54087 2.90145,-0.53386 2.81846,0.008 -0.0466,0.304 -0.2071,0.75214 -0.9175,2.561 -0.31816,0.81014 -1.97354,1.7328 -3.10887,1.7328 -0.32205,0 -0.86337,-0.21014 -1.20294,-0.46698 z m 3.29452,-0.81406 c 1.20636,-1.1239 1.33747,-3.17179 0.20306,-3.17179 -0.28426,0 -0.5917,0.28625 -0.68319,0.63612 -0.187,0.71507 -1.32657,0.86478 -1.9369,0.25445 -0.27492,-0.27492 -0.38167,-0.28017 -0.38167,-0.0188 0,0.1996 0.13432,0.44592 0.2985,0.54739 0.16418,0.10147 0.24397,0.46773 0.1773,0.81392 -0.0756,0.39234 0.0516,0.62943 0.33761,0.62943 0.5633,0 0.60643,0.52355 0.0612,0.74353 -0.21867,0.0882 -0.031,0.17173 0.41711,0.18554 0.44808,0.0138 1.1262,-0.26511 1.50693,-0.61981 z m 4.40199,0.42423 c -0.3582,-0.35819 -0.21816,-0.73349 0.27369,-0.73349 0.2624,0 0.47709,0.13468 0.47709,0.29929 0,0.40106 -0.49668,0.68831 -0.75078,0.4342 z m -11.0174,-1.05155 c 0,-0.17493 0.21469,-0.31806 0.47709,-0.31806 0.26239,0 0.47708,0.14313 0.47708,0.31806 0,0.17493 -0.21469,0.31806 -0.47708,0.31806 -0.2624,0 -0.47709,-0.14313 -0.47709,-0.31806 z m 11.13206,-0.95417 c 0,-0.17494 0.14313,-0.31806 0.31806,-0.31806 0.17493,0 0.31806,0.14312 0.31806,0.31806 0,0.17493 -0.14313,0.31805 -0.31806,0.31805 -0.17493,0 -0.31806,-0.14312 -0.31806,-0.31805 z m -10.97303,-0.63612 c -0.10812,-0.17494 0.0266,-0.31806 0.29928,-0.31806 0.27273,0 0.49586,0.14312 0.49586,0.31806 0,0.17493 -0.13468,0.31806 -0.29928,0.31806 -0.16461,0 -0.38775,-0.14313 -0.49586,-0.31806 z m 10.65497,-0.93541 c 0,-0.16461 0.14313,-0.38774 0.31806,-0.49586 0.17494,-0.10811 0.31806,0.0266 0.31806,0.29929 0,0.27272 -0.14312,0.49586 -0.31806,0.49586 -0.17493,0 -0.31806,-0.13468 -0.31806,-0.29929 z m -10.17788,-0.65532 c 0,-0.17493 0.22313,-0.31806 0.49585,-0.31806 0.27273,0 0.40741,0.14313 0.29929,0.31806 -0.10811,0.17493 -0.33125,0.31806 -0.49586,0.31806 -0.16461,0 -0.29928,-0.14313 -0.29928,-0.31806 z m 9.22371,-0.9542 c 0,-0.17494 0.21469,-0.31806 0.47709,-0.31806 0.26239,0 0.47708,0.14312 0.47708,0.31806 0,0.17493 -0.21469,0.31805 -0.47708,0.31805 -0.2624,0 -0.47709,-0.14312 -0.47709,-0.31805 z m -8.09372,-0.29086 c -0.10241,-0.1657 -0.0506,-0.38506 0.11508,-0.48746 0.16569,-0.10241 0.38505,-0.0506 0.48746,0.11507 0.10241,0.1657 0.0506,0.38506 -0.11507,0.48747 -0.1657,0.1024 -0.38506,0.0506 -0.48747,-0.11508 z m 6.9973,-0.63612 c -0.10241,-0.16569 -0.0506,-0.38505 0.11507,-0.48746 0.1657,-0.10241 0.38506,-0.0506 0.48747,0.11507 0.10241,0.1657 0.0506,0.38506 -0.11508,0.48747 -0.16569,0.10241 -0.38505,0.0506 -0.48746,-0.11508 z m -5.85317,-0.32932 c 0.07,-0.20992 0.23099,-0.37093 0.35781,-0.35781 0.38031,0.0393 0.30666,0.47559 -0.10337,0.61226 -0.20991,0.07 -0.32442,-0.0445 -0.25444,-0.25445 z m 1.69887,-0.65646 c -0.10661,-0.17249 -0.1496,-0.32348 -0.0955,-0.33553 1.04721,-0.23349 1.86558,-0.19105 1.77128,0.0919 -0.15317,0.45952 -1.42779,0.64486 -1.67574,0.24367 z m 2.70624,0.004 c 0,-0.17493 0.14313,-0.31806 0.31806,-0.31806 0.17494,0 0.31806,0.14313 0.31806,0.31806 0,0.17493 -0.14312,0.31806 -0.31806,0.31806 -0.17493,0 -0.31806,-0.14313 -0.31806,-0.31806 z"
       style="fill:#ffffff"
       id="path1-9" /></g></svg>
