<?xml version="1.0" encoding="UTF-8" standalone="no"?>
<!-- Created with Inkscape (http://www.inkscape.org/) -->

<svg
   width="210mm"
   height="297mm"
   viewBox="0 0 210 297"
   version="1.1"
   id="svg1"
   xml:space="preserve"
   inkscape:version="1.3.2 (091e20e, 2023-11-25, custom)"
   sodipodi:docname="drawing for first.svg"
   xmlns:inkscape="http://www.inkscape.org/namespaces/inkscape"
   xmlns:sodipodi="http://sodipodi.sourceforge.net/DTD/sodipodi-0.dtd"
   xmlns="http://www.w3.org/2000/svg"
   xmlns:svg="http://www.w3.org/2000/svg"><sodipodi:namedview
     id="namedview1"
     pagecolor="#ffffff"
     bordercolor="#000000"
     borderopacity="0.25"
     inkscape:showpageshadow="2"
     inkscape:pageopacity="0.0"
     inkscape:pagecheckerboard="0"
     inkscape:deskcolor="#d1d1d1"
     inkscape:document-units="mm"
     inkscape:zoom="0.65834035"
     inkscape:cx="61.518332"
     inkscape:cy="678.22062"
     inkscape:window-width="1920"
     inkscape:window-height="974"
     inkscape:window-x="-11"
     inkscape:window-y="-11"
     inkscape:window-maximized="1"
     inkscape:current-layer="layer1" /><defs
     id="defs1"><clipPath
       clipPathUnits="userSpaceOnUse"
       id="clipPath65"><rect
         style="fill:none;fill-opacity:1;stroke:#000000;stroke-width:0.3;stroke-dasharray:none;stroke-opacity:1"
         id="rect65"
         width="14.422251"
         height="22.663534"
         x="92.927612"
         y="444.319"
         ry="2.0214083" /></clipPath></defs><g
     inkscape:label="Layer 1"
     inkscape:groupmode="layer"
     id="layer1"><g
       id="g7"
       inkscape:export-filename="g7.png"
       inkscape:export-xdpi="300"
       inkscape:export-ydpi="300"
       style="stroke:#ffffff;stroke-opacity:1"
       transform="translate(-166.53082,-29.554958)"><g
         id="g70"><rect
           style="fill:none;stroke:#ffffff;stroke-width:0.295506;stroke-dasharray:none;stroke-opacity:1"
           id="rect1"
           width="22.952213"
           height="40.642563"
           x="124.82483"
           y="93.138504"
           ry="0" /><rect
           style="fill:none;stroke:#ffffff;stroke-width:0.3;stroke-dasharray:none;stroke-opacity:1"
           id="rect2"
           width="10.941018"
           height="2.0603216"
           x="130.79489"
           y="93.353882" /><rect
           style="fill:none;stroke:#ffffff;stroke-width:0.3;stroke-dasharray:none;stroke-opacity:1"
           id="rect3"
           width="4.1206431"
           height="4.2627344"
           x="128.52144"
           y="99.605896" /><rect
           style="fill:none;stroke:#ffffff;stroke-width:0.3;stroke-dasharray:none;stroke-opacity:1"
           id="rect4"
           width="4.1206431"
           height="4.2627344"
           x="134.56032"
           y="99.605896" /><rect
           style="fill:none;stroke:#ffffff;stroke-width:0.3;stroke-dasharray:none;stroke-opacity:1"
           id="rect5"
           width="4.1206431"
           height="4.2627344"
           x="140.24396"
           y="99.676941" /><rect
           style="fill:none;stroke:#ffffff;stroke-width:0.3;stroke-dasharray:none;stroke-opacity:1"
           id="rect6"
           width="4.1206431"
           height="4.2627344"
           x="128.66353"
           y="105.14745" /><rect
           style="fill:none;stroke:#ffffff;stroke-width:0.3;stroke-dasharray:none;stroke-opacity:1"
           id="rect7"
           width="4.1206431"
           height="4.2627344"
           x="134.48927"
           y="105.00536" /><ellipse
           style="fill:#ff0000;stroke:none;stroke-width:0.3;stroke-dasharray:none;stroke-opacity:1"
           id="path7"
           cx="136.15884"
           cy="129.87131"
           rx="1.4564342"
           ry="1.4209114" /></g></g><g
       id="g16"
       inkscape:export-filename="g16.png"
       inkscape:export-xdpi="300"
       inkscape:export-ydpi="300"
       style="stroke:#ffffff;stroke-opacity:1"><rect
         style="fill:none;stroke:#ffffff;stroke-width:0.3;stroke-dasharray:none;stroke-opacity:1"
         id="rect9"
         width="11.453991"
         height="57.069012"
         x="-74.450943"
         y="82.689781"
         ry="0" /><path
         style="fill:none;stroke:#ffffff;stroke-width:0.3;stroke-dasharray:none;stroke-opacity:1"
         d="m -67.067019,87.030826 h 4.049596"
         id="path9" /><path
         style="fill:none;stroke:#ffffff;stroke-width:0.3;stroke-dasharray:none;stroke-opacity:1"
         d="m -67.067019,93.909997 h 4.049596"
         id="path10" /><path
         style="fill:none;stroke:#ffffff;stroke-width:0.370632;stroke-dasharray:none;stroke-opacity:1"
         d="m -69.198386,100.78917 h 6.180963"
         id="path11" /><path
         style="fill:none;stroke:#ffffff;stroke-width:0.3;stroke-dasharray:none;stroke-opacity:1"
         d="m -67.067019,108.19755 h 4.049596"
         id="path12" /><path
         style="fill:none;stroke:#ffffff;stroke-width:0.3;stroke-dasharray:none;stroke-opacity:1"
         d="m -67.067019,115.07676 h 4.049596"
         id="path13" /><path
         style="fill:none;stroke:#ffffff;stroke-width:0.370632;stroke-dasharray:none;stroke-opacity:1"
         d="m -69.198386,121.95597 h 6.180963"
         id="path14" /><path
         style="fill:none;stroke:#ffffff;stroke-width:0.3;stroke-dasharray:none;stroke-opacity:1"
         d="m -67.067019,128.83518 h 4.049596"
         id="path15" /><path
         style="fill:none;stroke:#ffffff;stroke-width:0.3;stroke-dasharray:none;stroke-opacity:1"
         d="m -67.067019,135.71439 h 4.049596"
         id="path16" /></g><g
       id="g71"
       transform="translate(-12.788203,-3.2680964)"
       inkscape:export-filename="g23.png"
       inkscape:export-xdpi="300"
       inkscape:export-ydpi="300"><rect
         style="fill:none;stroke:#ffffff;stroke-width:0.3;stroke-dasharray:none;stroke-opacity:1"
         id="rect16"
         width="14.493298"
         height="15.55898"
         x="-12.788203"
         y="179.1059" /><rect
         style="fill:none;stroke:#ffffff;stroke-width:0.3;stroke-dasharray:none;stroke-opacity:1"
         id="rect17"
         width="10.017426"
         height="2.2734585"
         x="-10.514745"
         y="176.12196" /><rect
         style="fill:none;stroke:#ffffff;stroke-width:0.3;stroke-dasharray:none;stroke-opacity:1"
         id="rect18"
         width="10.017426"
         height="2.2734585"
         x="-10.514745"
         y="195.17171" /><ellipse
         style="fill:none;stroke:#ffffff;stroke-width:0.3;stroke-dasharray:none;stroke-opacity:1"
         id="path18"
         cx="-3.5167558"
         cy="182.65816"
         rx="1.4564342"
         ry="1.4209114" /><ellipse
         style="fill:none;stroke:#ffffff;stroke-width:0.3;stroke-dasharray:none;stroke-opacity:1"
         id="ellipse18"
         cx="-7.4242625"
         cy="182.62263"
         rx="1.4564342"
         ry="1.4209114" /><ellipse
         style="fill:none;stroke:#ffffff;stroke-width:0.3;stroke-dasharray:none;stroke-opacity:1"
         id="ellipse19"
         cx="-3.5167558"
         cy="190.35057"
         rx="1.4564342"
         ry="1.4209114" /><ellipse
         style="fill:none;stroke:#ffffff;stroke-width:0.3;stroke-dasharray:none;stroke-opacity:1"
         id="ellipse20"
         cx="-7.4242625"
         cy="190.31505"
         rx="1.4564342"
         ry="1.4209114" /><ellipse
         style="fill:none;stroke:#ffffff;stroke-width:0.3;stroke-dasharray:none;stroke-opacity:1"
         id="ellipse21"
         cx="-1.5630026"
         cy="186.54964"
         rx="1.4564342"
         ry="1.4209114" /><ellipse
         style="fill:none;stroke:#ffffff;stroke-width:0.3;stroke-dasharray:none;stroke-opacity:1"
         id="ellipse22"
         cx="-9.3424931"
         cy="186.47859"
         rx="1.4564342"
         ry="1.4209114" /><ellipse
         style="fill:#ff0000;stroke:none;stroke-width:0.3;stroke-dasharray:none;stroke-opacity:1"
         id="ellipse23"
         cx="-5.506032"
         cy="186.51411"
         rx="1.4564342"
         ry="1.4209114" /></g><path
       style="fill:none;stroke:#ffffff;stroke-width:0.3;stroke-dasharray:none;stroke-opacity:1"
       d="m -111.58176,35.247626 5.39947,2.55764 31.331094,-0.213136 0.07105,-5.186327 -31.544234,0.213137 z"
       id="path23"
       inkscape:export-filename="path23.png"
       inkscape:export-xdpi="300"
       inkscape:export-ydpi="300" /><g
       id="g69"
       transform="translate(-104.29491,115.66219)"
       inkscape:export-filename="g26.png"
       inkscape:export-xdpi="300"
       inkscape:export-ydpi="300"><rect
         style="fill:none;stroke:#ffffff;stroke-width:0.3;stroke-dasharray:none;stroke-opacity:1"
         id="rect23"
         width="58.576115"
         height="36.47192"
         x="25.319349"
         y="99.971245" /><path
         style="fill:none;stroke:#ffffff;stroke-width:0.3;stroke-dasharray:none;stroke-opacity:1"
         d="M 77.264209,99.971245 V 136.44317"
         id="path24" /><circle
         style="fill:#ff0000;stroke:none;stroke-width:0.3;stroke-dasharray:none;stroke-opacity:1"
         id="path25"
         cx="80.177948"
         cy="118.25745"
         r="1.7080514" /><path
         d="m 39.973049,127.73411 c -0.08051,-0.13028 0.03152,-0.30513 0.248968,-0.38858 0.240152,-0.0922 0.395355,8.3e-4 0.395355,0.23686 0,0.42794 -0.413444,0.52529 -0.644323,0.15172 z m 1.305782,-0.0277 c -0.08994,-0.14552 0.0221,-0.26458 0.248968,-0.26458 0.22687,0 0.41249,0.11906 0.41249,0.26458 0,0.14552 -0.112036,0.26458 -0.248968,0.26458 -0.136933,0 -0.322554,-0.11906 -0.41249,-0.26458 z m 1.455208,0 c 0,-0.14552 0.18562,-0.26458 0.41249,-0.26458 0.226869,0 0.338905,0.11906 0.248968,0.26458 -0.08994,0.14552 -0.275557,0.26458 -0.41249,0.26458 -0.136932,0 -0.248968,-0.11906 -0.248968,-0.26458 z m 1.322917,0 c 0,-0.14552 0.18562,-0.26458 0.412489,-0.26458 0.22687,0 0.338906,0.11906 0.248969,0.26458 -0.08994,0.14552 -0.275557,0.26458 -0.41249,0.26458 -0.136933,0 -0.248968,-0.11906 -0.248968,-0.26458 z m 1.322916,0 c 0,-0.14552 0.178594,-0.26458 0.396875,-0.26458 0.218281,0 0.396875,0.11906 0.396875,0.26458 0,0.14552 -0.178594,0.26458 -0.396875,0.26458 -0.218281,0 -0.396875,-0.11906 -0.396875,-0.26458 z m 1.455208,0 c -0.08994,-0.14552 0.0221,-0.26458 0.248969,-0.26458 0.226869,0 0.41249,0.11906 0.41249,0.26458 0,0.14552 -0.112036,0.26458 -0.248969,0.26458 -0.136932,0 -0.322553,-0.11906 -0.41249,-0.26458 z m 1.322917,0 c -0.08994,-0.14552 0.0221,-0.26458 0.248969,-0.26458 0.226869,0 0.412489,0.11906 0.412489,0.26458 0,0.14552 -0.112035,0.26458 -0.248968,0.26458 -0.136933,0 -0.322553,-0.11906 -0.41249,-0.26458 z m 1.494896,0.0132 c 0.113694,-0.34108 0.476596,-0.40235 0.509323,-0.086 0.01091,0.1055 -0.123031,0.23945 -0.297656,0.29766 -0.174625,0.0582 -0.269875,-0.037 -0.211667,-0.21167 z m 1.283229,-0.0132 c 0,-0.14552 0.178594,-0.26458 0.396875,-0.26458 0.218281,0 0.396875,0.11906 0.396875,0.26458 0,0.14552 -0.178594,0.26458 -0.396875,0.26458 -0.218281,0 -0.396875,-0.11906 -0.396875,-0.26458 z m 1.322917,0 c 0,-0.14552 0.178593,-0.26458 0.396875,-0.26458 0.218281,0 0.396875,0.11906 0.396875,0.26458 0,0.14552 -0.178594,0.26458 -0.396875,0.26458 -0.218282,0 -0.396875,-0.11906 -0.396875,-0.26458 z m 1.472343,0.0277 c -0.08051,-0.13028 0.03152,-0.30513 0.248968,-0.38858 0.240152,-0.0922 0.395355,8.3e-4 0.395355,0.23686 0,0.42794 -0.413444,0.52529 -0.644323,0.15172 z m 1.438073,-0.0121 c 0,-0.13694 0.119063,-0.32256 0.264584,-0.41249 0.14552,-0.0899 0.264583,0.0221 0.264583,0.24896 0,0.22687 -0.119063,0.41249 -0.264583,0.41249 -0.145521,0 -0.264584,-0.11203 -0.264584,-0.24896 z m 1.362604,-0.002 c 0.113695,-0.34108 0.476596,-0.40235 0.509323,-0.086 0.01091,0.1055 -0.123031,0.23945 -0.297656,0.29766 -0.174625,0.0582 -0.269875,-0.037 -0.211667,-0.21167 z m 1.28323,-0.0132 c 0,-0.14552 0.178593,-0.26458 0.396875,-0.26458 0.218281,0 0.396874,0.11906 0.396874,0.26458 0,0.14552 -0.178593,0.26458 -0.396874,0.26458 -0.218282,0 -0.396875,-0.11906 -0.396875,-0.26458 z m 1.322916,0 c 0,-0.14552 0.178594,-0.26458 0.396875,-0.26458 0.218281,0 0.396875,0.11906 0.396875,0.26458 0,0.14552 -0.178594,0.26458 -0.396875,0.26458 -0.218281,0 -0.396875,-0.11906 -0.396875,-0.26458 z m 1.50331,0.0922 c -0.09481,-0.0948 0.137079,-0.33294 0.515313,-0.52917 0.865129,-0.44883 0.891794,-0.44679 0.891794,0.0684 0,0.26924 -0.145563,0.36933 -0.396875,0.27289 -0.218282,-0.0838 -0.396875,-0.037 -0.396875,0.10399 0,0.29213 -0.356375,0.34087 -0.613357,0.0839 z m -20.238014,-1.43496 c 0.05214,-0.15643 0.207918,-0.28443 0.346163,-0.28443 0.138245,0 0.294018,0.128 0.346163,0.28443 0.05215,0.15644 -0.103628,0.28443 -0.346163,0.28443 -0.242535,0 -0.398308,-0.12799 -0.346163,-0.28443 z m 20.382838,-0.29435 c 0.163532,-0.49059 0.733116,-0.57196 0.733116,-0.10473 0,0.23041 -0.188516,0.41892 -0.418924,0.41892 -0.230408,0 -0.371794,-0.14138 -0.314192,-0.31419 z m -19.864696,-0.99549 c 0.113695,-0.34109 0.476596,-0.40236 0.509323,-0.086 0.01091,0.1055 -0.123031,0.23945 -0.297656,0.29765 -0.174625,0.0582 -0.269875,-0.037 -0.211667,-0.21166 z m 19.444091,0.0678 c -0.297969,-0.29797 -0.181475,-0.61017 0.227679,-0.61017 0.218282,0 0.396875,0.11204 0.396875,0.24897 0,0.33363 -0.41317,0.57258 -0.624554,0.3612 z m -19.219195,-1.40392 c 0,-0.14552 0.178594,-0.26458 0.396875,-0.26458 0.218281,0 0.396875,0.11906 0.396875,0.26458 0,0.14552 -0.178594,0.26458 -0.396875,0.26458 -0.218281,0 -0.396875,-0.11906 -0.396875,-0.26458 z m 18.690029,0.081 c -0.29797,-0.29797 -0.181476,-0.61017 0.227679,-0.61017 0.218281,0 0.396875,0.11204 0.396875,0.24897 0,0.33364 -0.413171,0.57259 -0.624554,0.3612 z m -18.160862,-1.40392 c 0,-0.14552 0.178593,-0.26458 0.396875,-0.26458 0.218281,0 0.396875,0.11906 0.396875,0.26458 0,0.14553 -0.178594,0.26459 -0.396875,0.26459 -0.218282,0 -0.396875,-0.11906 -0.396875,-0.26459 z m 17.462499,-0.13229 c 0,-0.24253 0.127992,-0.39831 0.284427,-0.34616 0.156435,0.0521 0.284427,0.20792 0.284427,0.34616 0,0.13825 -0.127992,0.29402 -0.284427,0.34617 -0.156435,0.0521 -0.284427,-0.10363 -0.284427,-0.34617 z m -16.933333,-1.19062 c 0,-0.14552 0.185621,-0.26459 0.41249,-0.26459 0.22687,0 0.338905,0.11907 0.248969,0.26459 -0.08994,0.14552 -0.275558,0.26458 -0.41249,0.26458 -0.136933,0 -0.248969,-0.11906 -0.248969,-0.26458 z m 9.789583,-0.13229 c 0,-0.21828 -0.119062,-0.39688 -0.264583,-0.39688 -0.145521,0 -0.264583,-0.17859 -0.264583,-0.39687 0,-0.21828 0.119062,-0.39688 0.264583,-0.39688 0.145521,0 0.264583,0.1786 0.264583,0.39688 0,0.21828 0.119063,0.39687 0.264584,0.39687 0.145521,0 0.264583,0.1786 0.264583,0.39688 0,0.21828 -0.119062,0.39687 -0.264583,0.39687 -0.145521,0 -0.264584,-0.17859 -0.264584,-0.39687 z m 6.614583,0.1479 c 0,-0.13693 0.119063,-0.32255 0.264584,-0.41249 0.145521,-0.0899 0.264583,0.0221 0.264583,0.24897 0,0.22687 -0.119062,0.41249 -0.264583,0.41249 -0.145521,0 -0.264584,-0.11203 -0.264584,-0.24897 z m -5.820833,-1.19062 c 0,-0.22687 0.119063,-0.41249 0.264584,-0.41249 0.14552,0 0.264583,0.11203 0.264583,0.24897 0,0.13693 -0.119063,0.32255 -0.264583,0.41249 -0.145521,0.0899 -0.264584,-0.0221 -0.264584,-0.24897 z m -10.318749,-0.14791 c 0,-0.14552 0.178593,-0.26458 0.396875,-0.26458 0.218281,0 0.396875,0.11906 0.396875,0.26458 0,0.14552 -0.178594,0.26458 -0.396875,0.26458 -0.218282,0 -0.396875,-0.11906 -0.396875,-0.26458 z m 15.610416,0.0156 c 0,-0.13694 0.119062,-0.32256 0.264583,-0.41249 0.145521,-0.0899 0.264583,0.0221 0.264583,0.24896 0,0.22687 -0.119062,0.41249 -0.264583,0.41249 -0.145521,0 -0.264583,-0.11203 -0.264583,-0.24896 z m -7.224751,-0.71398 c -0.211384,-0.21138 0.02757,-0.62456 0.361199,-0.62456 0.136933,0 0.248969,0.1786 0.248969,0.39688 0,0.40915 -0.312199,0.52565 -0.610168,0.22768 z m -7.717628,-0.34933 c -0.224385,-0.36306 -0.02575,-0.63562 0.365281,-0.50122 0.160141,0.055 0.180611,0.24183 0.04961,0.45268 -0.165367,0.26616 -0.272636,0.27871 -0.41489,0.0485 z m 10.329305,0.0171 c -0.08051,-0.13027 0.03152,-0.30513 0.248969,-0.38857 0.240151,-0.0922 0.395355,8.3e-4 0.395355,0.23686 0,0.42793 -0.413444,0.52528 -0.644324,0.15171 z m 3.819324,-0.29231 c 0,-0.14552 0.178594,-0.26458 0.396875,-0.26458 0.218281,0 0.396875,0.11906 0.396875,0.26458 0,0.14553 -0.178594,0.26459 -0.396875,0.26459 -0.218281,0 -0.396875,-0.11906 -0.396875,-0.26459 z m -7.14375,-0.79375 c 0,-0.14552 0.178594,-0.26458 0.396875,-0.26458 0.218281,0 0.396875,0.11906 0.396875,0.26458 0,0.14553 -0.178594,0.26459 -0.396875,0.26459 -0.218281,0 -0.396875,-0.11906 -0.396875,-0.26459 z m 4.101042,-0.26458 c -0.08994,-0.14552 0.0221,-0.26458 0.248968,-0.26458 0.226869,0 0.41249,0.11906 0.41249,0.26458 0,0.14552 -0.112036,0.26458 -0.248968,0.26458 -0.136933,0 -0.322554,-0.11906 -0.41249,-0.26458 z m 2.682737,0.081 c -0.297969,-0.29797 -0.181475,-0.61017 0.227679,-0.61017 0.218281,0 0.396875,0.11204 0.396875,0.24897 0,0.33364 -0.41317,0.57259 -0.624554,0.3612 z m -13.398362,-0.34604 c 0,-0.14552 0.18562,-0.26459 0.41249,-0.26459 0.226869,0 0.338905,0.11907 0.248968,0.26459 -0.08994,0.14552 -0.275557,0.26458 -0.41249,0.26458 -0.136932,0 -0.248968,-0.11906 -0.248968,-0.26458 z m 6.254612,-0.44817 c -0.297969,-0.29797 -0.181475,-0.61017 0.227679,-0.61017 0.218282,0 0.396875,0.11204 0.396875,0.24897 0,0.33364 -0.41317,0.57259 -0.624554,0.3612 z m 5.183105,-0.39519 c 0.163532,-0.4906 0.733116,-0.57197 0.733116,-0.10473 0,0.23041 -0.188516,0.41892 -0.418924,0.41892 -0.230408,0 -0.371794,-0.14139 -0.314192,-0.31419 z m 1.322916,-0.26458 c 0.163532,-0.4906 0.733117,-0.57197 0.733117,-0.10474 0,0.23041 -0.188516,0.41893 -0.418924,0.41893 -0.230408,0 -0.371795,-0.14139 -0.314193,-0.31419 z m -12.49605,-0.21498 c 0,-0.14552 0.178594,-0.26458 0.396875,-0.26458 0.218281,0 0.396875,0.11906 0.396875,0.26458 0,0.14552 -0.178594,0.26458 -0.396875,0.26458 -0.218281,0 -0.396875,-0.11906 -0.396875,-0.26458 z m 5.291667,-0.66146 c 0,-0.21828 0.119062,-0.39687 0.264583,-0.39687 0.145521,0 0.264583,0.17859 0.264583,0.39687 0,0.21828 -0.119062,0.39688 -0.264583,0.39688 -0.145521,0 -0.264583,-0.1786 -0.264583,-0.39688 z m 6.783779,0.2133 c -0.29797,-0.29797 -0.181475,-0.61017 0.227679,-0.61017 0.218281,0 0.396875,0.11203 0.396875,0.24897 0,0.33363 -0.413171,0.57258 -0.624554,0.3612 z M 44.490735,114.8228 c -0.29797,-0.29797 -0.181475,-0.61017 0.227679,-0.61017 0.218281,0 0.396875,0.11204 0.396875,0.24897 0,0.33363 -0.413171,0.57258 -0.624554,0.3612 z m 3.983136,-0.77936 c -0.211384,-0.21139 0.02757,-0.62456 0.361199,-0.62456 0.136933,0 0.248969,0.1786 0.248969,0.39688 0,0.40915 -0.312199,0.52565 -0.610168,0.22768 z m -3.623165,-0.88914 c 0,-0.14552 0.119062,-0.26459 0.264583,-0.26459 0.145521,0 0.264583,0.11907 0.264583,0.26459 0,0.14552 -0.119062,0.26458 -0.264583,0.26458 -0.145521,0 -0.264583,-0.11906 -0.264583,-0.26458 z m 3.079612,-0.18358 c -0.29797,-0.29797 -0.181475,-0.61017 0.227679,-0.61017 0.218281,0 0.396875,0.11203 0.396875,0.24897 0,0.33363 -0.41317,0.57258 -0.624554,0.3612 z m -2.645833,-0.79375 c -0.29797,-0.29797 -0.181476,-0.61017 0.227679,-0.61017 0.218281,0 0.396875,0.11203 0.396875,0.24897 0,0.33363 -0.413171,0.57258 -0.624554,0.3612 z m 2.116666,-0.52917 c -0.297969,-0.29797 -0.181475,-0.61017 0.227679,-0.61017 0.218282,0 0.396875,0.11204 0.396875,0.24897 0,0.33363 -0.41317,0.57258 -0.624554,0.3612 z m -1.756695,-0.985 c 0,-0.2304 0.188515,-0.41892 0.418923,-0.41892 0.230408,0 0.371795,0.14139 0.314193,0.31419 -0.163532,0.4906 -0.733116,0.57197 -0.733116,0.10473 z m 1.058333,-0.55121 c 0,-0.21828 -0.119063,-0.39688 -0.264583,-0.39688 -0.145521,0 -0.264584,-0.17859 -0.264584,-0.39687 0,-0.21828 0.119063,-0.39688 0.264584,-0.39688 0.14552,0 0.264583,0.1786 0.264583,0.39688 0,0.21828 0.119062,0.39687 0.264583,0.39687 0.145521,0 0.264583,0.1786 0.264583,0.39688 0,0.21828 -0.119062,0.39687 -0.264583,0.39687 -0.145521,0 -0.264583,-0.17859 -0.264583,-0.39687 z"
         style="fill:#ffffff;stroke:none;stroke-opacity:1"
         id="path1" /></g><g
       id="g72"
       transform="translate(-221.04195,-43.404601)"
       inkscape:export-filename="path26.png"
       inkscape:export-xdpi="300"
       inkscape:export-ydpi="300"><path
         style="fill:none;stroke:#ffffff;stroke-width:0.3;stroke-dasharray:none;stroke-opacity:1"
         d="M 79.150051,230.6009 79.351,222.06063 c 0.442936,-2.81326 -6.218768,-6.83221 -5.526048,-10.24832 -0.799053,-2.71301 -0.720904,-16.71059 13.262517,-16.17623 9.463957,0.67973 13.812021,6.32031 13.262511,14.56868 -0.957494,8.78703 -6.383391,7.30414 -5.827465,12.65967 l 0.100472,7.73645 z"
         id="path26"
         sodipodi:nodetypes="cccccccc"
         inkscape:export-filename="path26.png"
         inkscape:export-xdpi="300"
         inkscape:export-ydpi="300" /><ellipse
         style="fill:#ff0000;stroke:none;stroke-width:0.350394;stroke-dasharray:none;stroke-opacity:1"
         id="path27"
         cx="87.162819"
         cy="209.04927"
         rx="5.3752604"
         ry="5.2999043" /><rect
         style="fill:#ffffff;stroke:#ffffff;stroke-width:0.3;stroke-dasharray:none;stroke-opacity:1"
         id="rect27"
         width="2.3108931"
         height="2.612314"
         x="99.094055"
         y="209.04927" /><path
         style="fill:none;stroke:#ffffff;stroke-width:0.3;stroke-dasharray:none;stroke-opacity:1"
         d="m 79.451472,226.12982 15.271991,-0.0503"
         id="path28" /><path
         style="fill:none;stroke:#ffffff;stroke-width:0.3;stroke-dasharray:none;stroke-opacity:1"
         d="m 79.300763,228.54117 15.322224,-0.25116"
         id="path29" /><rect
         style="fill:none;stroke:#ffffff;stroke-width:0.291509;stroke-dasharray:none;stroke-opacity:1"
         id="rect29"
         width="9.8549061"
         height="2.3696208"
         x="82.31073"
         y="230.5464" /><rect
         style="fill:#ffffff;stroke:none;stroke-width:0.3;stroke-dasharray:none;stroke-opacity:1"
         id="rect33"
         width="25.068167"
         height="0.30142084"
         x="74.578499"
         y="195.33464" /><rect
         style="fill:#ffffff;stroke:#ffffff;stroke-width:0.3;stroke-dasharray:none;stroke-opacity:1"
         id="rect28"
         width="2.2606561"
         height="2.6625507"
         x="72.719742"
         y="209.20003" /><rect
         style="fill:#ffffff;stroke:#ffffff;stroke-width:0.3;stroke-dasharray:none;stroke-opacity:1"
         id="rect30"
         width="2.562077"
         height="2.562077"
         x="85.932022"
         y="194.27968" /><rect
         style="fill:#ffffff;stroke:#ffffff;stroke-width:0.3;stroke-dasharray:none;stroke-opacity:1"
         id="rect31"
         width="2.4616036"
         height="2.6625507"
         x="72.820206"
         y="194.32988" /><rect
         style="fill:#ffffff;stroke:#ffffff;stroke-width:0.3;stroke-dasharray:none;stroke-opacity:1"
         id="rect32"
         width="2.612314"
         height="2.6625507"
         x="98.84288"
         y="194.27968" /></g></g></svg>
